<svg width="0" height="0" class="hidden">
    <symbol xmlns="http://www.w3.org/2000/svg" viewBox="0 0 30 30" id="vk">
        <path d="M15 0C6.716 0 0 6.716 0 15c0 8.284 6.716 15 15 15 8.284 0 15-6.716 15-15 0-8.284-6.716-15-15-15zm7.609 16.622c.699.683 1.439 1.326 2.066 2.08.278.333.54.677.74 1.065.285.553.027 1.159-.467 1.192l-3.073-.001c-.794.066-1.426-.255-1.958-.797-.425-.433-.82-.894-1.229-1.342a2.871 2.871 0 00-.553-.492c-.42-.272-.783-.189-1.023.249-.245.445-.3.939-.324 1.434-.033.725-.252.914-.979.948-1.554.073-3.028-.163-4.398-.946-1.208-.69-2.144-1.666-2.959-2.77-1.587-2.152-2.803-4.514-3.895-6.944-.246-.547-.066-.84.538-.85a85.522 85.522 0 013.009-.002c.408.007.678.24.835.625.542 1.334 1.206 2.603 2.039 3.78.222.313.448.625.77.846.357.245.628.164.796-.233.107-.253.154-.523.177-.794.08-.927.09-1.854-.049-2.777-.086-.578-.41-.951-.987-1.06-.293-.056-.25-.165-.108-.332.248-.29.48-.47.944-.47h3.472c.547.107.67.353.744.904l.003 3.859c-.006.213.107.845.49.985.307.101.51-.145.693-.34.833-.883 1.426-1.926 1.957-3.005.235-.476.437-.969.634-1.462.146-.365.373-.545.785-.539l3.343.004c.099 0 .199.001.296.018.564.097.718.339.544.889-.275.863-.808 1.583-1.329 2.304-.558.772-1.154 1.517-1.707 2.293-.508.709-.468 1.066.163 1.681z"></path>
    </symbol>
    <symbol xmlns="http://www.w3.org/2000/svg" viewBox="0 0 30 30" id="youtube">
        <path d="M13.132 17.81L18.01 15l-4.88-2.81v5.62z"></path>
        <path d="M15 0C6.717 0 0 6.717 0 15c0 8.283 6.717 15 15 15 8.283 0 15-6.717 15-15 0-8.283-6.717-15-15-15zm9.373 15.015s0 3.042-.386 4.51a2.349 2.349 0 01-1.652 1.651c-1.467.387-7.335.387-7.335.387s-5.852 0-7.335-.402a2.349 2.349 0 01-1.652-1.652C5.627 18.057 5.627 15 5.627 15s0-3.042.386-4.509a2.396 2.396 0 011.652-1.667C9.132 8.438 15 8.438 15 8.438s5.868 0 7.334.401c.803.216 1.436.85 1.653 1.652.401 1.467.386 4.524.386 4.524z"></path>
    </symbol>
    <symbol xmlns="http://www.w3.org/2000/svg" viewBox="0 0 30 30" id="facebook">
        <path d="M30 15c0-8.285-6.715-15-15-15S0 6.715 0 15s6.715 15 15 15c.088 0 .176 0 .264-.006V18.322H12.04v-3.756h3.223v-2.765c0-3.205 1.957-4.951 4.816-4.951 1.371 0 2.549.1 2.889.146v3.352H21c-1.553 0-1.857.738-1.857 1.822v2.39h3.72l-.486 3.756h-3.234V29.42C25.413 27.62 30 21.85 30 15z"></path>
    </symbol>
    <symbol xmlns="http://www.w3.org/2000/svg" viewBox="0 0 30 30" id="instagram">
        <path fill-rule="evenodd" clip-rule="evenodd" d="M30 15c0 8.284-6.716 15-15 15-8.284 0-15-6.716-15-15C0 6.716 6.716 0 15 0c8.284 0 15 6.716 15 15zM7 9.344A2.347 2.347 0 019.344 7h11.312A2.347 2.347 0 0123 9.344v11.312A2.347 2.347 0 0120.656 23H9.344A2.347 2.347 0 017 20.656V9.344zm3.813 5.625a4.223 4.223 0 004.218 4.219 4.224 4.224 0 004.219-4.22 4.223 4.223 0 00-4.219-4.218 4.223 4.223 0 00-4.219 4.219zm7.5-4.688a1.407 1.407 0 102.815-.001 1.407 1.407 0 00-2.816.001zm1.406-.469a.47.47 0 100 .939.47.47 0 000-.939zM11.75 14.97a3.285 3.285 0 013.281-3.281 3.285 3.285 0 013.281 3.28 3.285 3.285 0 01-3.28 3.282 3.285 3.285 0 01-3.282-3.281z"></path>
    </symbol>
    <symbol xmlns="http://www.w3.org/2000/svg" viewBox="0 0 30 30" id="telegram">
        <path d="M15 30c8.286 0 15-6.714 15-15S23.286 0 15 0 0 6.714 0 15s6.714 15 15 15zM6.864 14.675l14.462-5.576c.671-.243 1.258.163 1.04 1.178h.002l-2.463 11.6c-.183.823-.671 1.023-1.355.636l-3.75-2.764-1.809 1.742c-.2.2-.368.369-.756.369l.266-3.816 6.95-6.279c.303-.266-.067-.416-.466-.151l-8.589 5.407-3.702-1.155c-.804-.255-.822-.803.17-1.191z"></path>
    </symbol>


    <symbol xmlns="http://www.w3.org/2000/svg" viewBox="0 0 25 25" id="search">
        <path d="M24.695 23.222l-7.11-7.11a9.848 9.848 0 002.206-6.216C19.791 4.44 15.351 0 9.896 0 4.44 0 0 4.44 0 9.896s4.44 9.896 9.896 9.896c2.354 0 4.515-.83 6.216-2.207l7.11 7.11a1.04 1.04 0 001.473 0 1.04 1.04 0 000-1.473zm-14.8-5.514c-4.308 0-7.812-3.504-7.812-7.812s3.504-7.813 7.813-7.813c4.308 0 7.812 3.505 7.812 7.813s-3.504 7.812-7.812 7.812z"></path>
    </symbol>

    
    <symbol xmlns="http://www.w3.org/2000/svg" viewBox="0 0 20 20" id="view">
        <path d="M7.734 10a2.187 2.187 0 104.375 0 2.187 2.187 0 00-4.375 0zm10.668-.504c-1.851-3.9-4.65-5.863-8.402-5.863-3.754 0-6.55 1.963-8.402 5.865a1.178 1.178 0 000 1.006c1.851 3.9 4.65 5.863 8.402 5.863 3.754 0 6.55-1.963 8.402-5.865a1.18 1.18 0 000-1.006zm-8.48 3.941a3.438 3.438 0 110-6.875 3.438 3.438 0 010 6.875z" ></path>
    </symbol>
    <symbol xmlns="http://www.w3.org/2000/svg" viewBox="0 0 20 20" id="comment">
        <path d="M10.5 3C5.805 3 2 6.091 2 9.906c0 1.647.71 3.154 1.893 4.34-.415 1.673-1.803 3.164-1.82 3.18a.264.264 0 00-.05.29c.043.1.136.159.243.159 2.201 0 3.851-1.056 4.668-1.707 1.086.409 2.291.645 3.566.645 4.695 0 8.5-3.092 8.5-6.907S15.195 3 10.5 3z" ></path>
    </symbol>
    <symbol xmlns="http://www.w3.org/2000/svg" viewBox="0 0 21 21" id="date">
        <path d="M6.75 3a.536.536 0 00-.536.536v1.071h1.072V3.536A.536.536 0 006.75 3zm7.5 0a.536.536 0 00-.536.536v1.071h1.072V3.536A.536.536 0 0014.25 3zm2.143 1.607h-1.607V6.75a.536.536 0 11-1.072 0V4.607H7.286V6.75a.536.536 0 11-1.072 0V4.607H4.607C3.72 4.607 3 5.327 3 6.214v10.179C3 17.28 3.72 18 4.607 18h11.786C17.28 18 18 17.28 18 16.393V6.214c0-.887-.72-1.607-1.607-1.607zm.536 11.786c0 .296-.24.536-.536.536H4.607a.536.536 0 01-.536-.536V9.429H16.93v6.964z" ></path>
    </symbol>
    <symbol xmlns="http://www.w3.org/2000/svg" viewBox="0 0 18 17" id="star">
        <path d="M17.646 6.383a1.497 1.497 0 00-1.188-1.018l-4.279-.696L10.195.815a1.502 1.502 0 00-2.671 0L5.54 4.669l-4.279.696a1.503 1.503 0 00-.825 2.54l3.053 3.078-.661 4.285a1.502 1.502 0 002.161 1.57l3.87-1.952 3.871 1.952a1.502 1.502 0 002.162-1.57l-.661-4.285 3.053-3.077a1.496 1.496 0 00.362-1.523z" ></path>
      </symbol>
      <symbol xmlns="http://www.w3.org/2000/svg" viewBox="0 0 16 16" id="time">
        <path d="M8 0C3.6 0 0 3.6 0 8s3.6 8 8 8 8-3.6 8-8-3.6-8-8-8zm3.44 10.56L7.2 8.24V4h1.2v3.52l3.6 2-.56 1.04z" ></path>
      </symbol>



      <symbol xmlns="http://www.w3.org/2000/svg" viewBox="0 0 25 48" id="arrow-left">
        <path d="M20.667 47.333a3.333 3.333 0 002.567-5.466L8.3 24 22.7 6.1a3.334 3.334 0 00-.5-4.7 3.334 3.334 0 00-4.866.5l-16.1 20a3.334 3.334 0 000 4.233l16.667 20a3.334 3.334 0 002.766 1.2z" fill="#fff"></path>
      </symbol>
      <symbol xmlns="http://www.w3.org/2000/svg" viewBox="0 0 25 48" id="arrow-right">
        <path d="M4.333 47.333a3.333 3.333 0 01-2.567-5.466L16.7 24 2.3 6.1a3.333 3.333 0 01.5-4.7 3.333 3.333 0 014.866.5l16.1 20a3.333 3.333 0 010 4.233l-16.666 20a3.333 3.333 0 01-2.767 1.2z" fill="#fff"></path>
      </symbol>


      <symbol xmlns="http://www.w3.org/2000/svg" viewBox="0 0 24 24" id="question">
        <path d="M12 0C5.373 0 0 5.373 0 12s5.373 12 12 12 12-5.373 12-12S18.627 0 12 0zm0 18.964a1.071 1.071 0 110-2.142 1.071 1.071 0 010 2.142zm1.685-5.88a1.293 1.293 0 00-.828 1.2v.609a.215.215 0 01-.214.214h-1.286a.215.215 0 01-.214-.214v-.576c0-.619.18-1.23.533-1.738a2.994 2.994 0 011.395-1.096c.911-.35 1.5-1.114 1.5-1.947 0-1.182-1.154-2.143-2.571-2.143-1.417 0-2.571.961-2.571 2.143v.203a.215.215 0 01-.215.215H7.93a.215.215 0 01-.215-.215v-.203c0-1.053.461-2.036 1.297-2.767.803-.705 1.864-1.09 2.989-1.09 1.125 0 2.186.388 2.99 1.09.835.731 1.296 1.714 1.296 2.767 0 1.548-1.02 2.94-2.601 3.549z" fill="#EF233C"></path>
      </symbol>


      <symbol xmlns="http://www.w3.org/2000/svg" viewBox="0 0 16 16" id="user">
        <path fill-rule="evenodd" clip-rule="evenodd" d="M1.333 15.913S0 15.913 0 14.586c0-1.325 1.333-5.304 8-5.304s8 3.979 8 5.304c0 1.327-1.333 1.327-1.333 1.327H1.333zM8 7.956c1.06 0 2.078-.419 2.828-1.165A3.967 3.967 0 0012 3.978a3.967 3.967 0 00-1.172-2.813A4.011 4.011 0 008 0C6.94 0 5.922.42 5.172 1.165A3.967 3.967 0 004 3.978c0 1.055.421 2.067 1.172 2.813A4.011 4.011 0 008 7.956z" fill="#EF233C"></path>
      </symbol>
      <symbol xmlns="http://www.w3.org/2000/svg" viewBox="0 0 19 14" id="email">
        <path d="M9.01 6.962l-9-4.696V1.16c0-.326.113-.6.336-.825C.567.112.83 0 1.135 0h15.75c.305 0 .57.112.792.335.222.224.334.499.334.825v1.106l-9 4.696zm-.562 1.16h1.125l8.438-4.514v9.155c0 .315-.112.587-.334.816-.223.23-.487.345-.791.345H1.136c-.305 0-.569-.115-.791-.345a1.132 1.132 0 01-.334-.816V3.608l8.437 4.514z" fill="#EF233C"></path>
      </symbol>

      <symbol  xmlns="http://www.w3.org/2000/svg" viewBox="0 0 16 14" id="check">
        <path fill-rule="evenodd" clip-rule="evenodd" d="M13.495.441c.274-.281.645-.44 1.03-.441.387-.001.758.155 1.034.435s.434.662.44 1.062c.007.4-.138.786-.405 1.076L7.77 12.704c-.134.15-.296.27-.477.354a1.429 1.429 0 01-1.64-.313L.468 7.373a1.523 1.523 0 01-.34-.495A1.569 1.569 0 01.43 5.182c.14-.145.305-.259.489-.335a1.425 1.425 0 011.148.02c.18.084.343.204.478.354L6.65 9.47 13.458.486a.475.475 0 01.039-.045h-.002z" fill="#fff"></path>
      </symbol>



      <symbol  xmlns="http://www.w3.org/2000/svg" viewBox="0 0 42 42" id="no">
        <path d="M21.082 0C9.548 0 0 9.384 0 20.918 0 32.452 9.548 42 21.082 42S42 32.452 42 20.918 32.616 0 21.082 0zm10.354 27.791c.96.96.96 2.521 0 3.482a2.465 2.465 0 01-3.481 0l-6.873-6.875-7.037 6.876c-.96.96-2.521.96-3.482 0a2.465 2.465 0 010-3.482l6.874-6.874-6.874-6.874a2.465 2.465 0 010-3.482c.96-.96 2.522-.96 3.482 0l7.037 6.876 6.873-6.876a2.465 2.465 0 013.481 0c.96.96.96 2.521 0 3.482l-6.874 6.874 6.874 6.873z"></path>
      </symbol>
      
      <symbol  xmlns="http://www.w3.org/2000/svg" viewBox="0 0 42 42" id="edit">
        <path d="M21.438 3.5h-1.925A4.834 4.834 0 0014.875 0a4.834 4.834 0 00-4.637 3.5H8.313C7.595 3.5 7 4.095 7 4.813v2.625a3.077 3.077 0 003.063 3.062h9.625a3.077 3.077 0 003.062-3.063V4.813c0-.717-.595-1.312-1.312-1.312z" fill="#EF233C"></path>
        <path d="M24.938 5.25H24.5v2.188a4.81 4.81 0 01-4.813 4.812h-9.625A4.81 4.81 0 015.25 7.437V5.25h-.438A4.81 4.81 0 000 10.063v21.874a4.81 4.81 0 004.813 4.813h12.915l.384-2.153c.176-.98.63-1.855 1.33-2.572l1.4-1.4H6.563a1.322 1.322 0 01-1.312-1.313c0-.717.595-1.312 1.313-1.312h16.625c.087 0 .157 0 .245.035h.017l6.3-6.3V10.063a4.81 4.81 0 00-4.813-4.813zm-1.75 19.688H6.563a1.322 1.322 0 01-1.313-1.313c0-.718.595-1.313 1.313-1.313h16.625c.717 0 1.312.595 1.312 1.313s-.595 1.313-1.313 1.313zm0-5.688H6.563a1.322 1.322 0 01-1.313-1.313c0-.717.595-1.312 1.313-1.312h16.625c.717 0 1.312.595 1.312 1.313 0 .717-.595 1.312-1.313 1.312zM21.922 42a1.31 1.31 0 01-1.291-1.542l.927-5.258c.046-.265.175-.51.364-.7l12.994-12.992c1.596-1.6 3.164-1.168 4.022-.31l2.164 2.165a3.064 3.064 0 010 4.33L28.11 40.689c-.19.19-.435.318-.7.364l-5.26.927a1.25 1.25 0 01-.227.021z" fill="#EF233C"></path>
      </symbol>
      <symbol xmlns="http://www.w3.org/2000/svg" viewBox="0 0 42 42" id="idea">
        <path d="M27.158 15.401a1.233 1.233 0 00-2.465 0 1.234 1.234 0 002.465 0zm-9.851 0a1.234 1.234 0 00-2.465 0c0 .68.553 1.233 1.232 1.233.68 0 1.233-.553 1.233-1.233zm2.461 3.694h2.465V32.15h-2.465V19.095z" fill="#EF233C"></path>
        <path d="M21 0C12.508 0 5.6 6.91 5.6 15.402a15.4 15.4 0 002.028 7.644 15.503 15.503 0 004.754 5.12v3.984h4.926V19.095h-1.233a3.697 3.697 0 01-3.693-3.693 3.697 3.697 0 013.693-3.694 3.697 3.697 0 013.481 4.926h2.89a3.697 3.697 0 013.481-4.926 3.697 3.697 0 013.693 3.694 3.698 3.698 0 01-3.693 3.693h-1.232V32.15h4.925v-3.984a15.503 15.503 0 004.754-5.12 15.4 15.4 0 002.029-7.644C36.402 6.909 29.492 0 21 0zm-8.62 39.537h17.24V42H12.38v-2.463zm0-4.926h17.24v2.465H12.38v-2.465z" fill="#EF233C" ></path>
      </symbol>
      <symbol xmlns="http://www.w3.org/2000/svg" viewBox="0 0 63 44" id="quote">
        <path d="M45.15 40.5c-3.9 0-6.85-1.6-8.85-4.8-1.7-2.7-2.55-6-2.55-9.9 0-5 1.25-9.5 3.75-13.5 2.6-4 6.5-7.2 11.7-9.6l1.35 2.7c-3.1 1.3-5.8 3.35-8.1 6.15-2.2 2.8-3.3 5.65-3.3 8.55 0 1.2.15 2.25.45 3.15 1.6-1.3 3.45-1.95 5.55-1.95 2.7 0 4.95.9 6.75 2.7 1.9 1.7 2.85 4 2.85 6.9 0 2.7-.95 5-2.85 6.9-1.8 1.8-4.05 2.7-6.75 2.7zm-25.5 0c-3.9 0-6.85-1.6-8.85-4.8-1.7-2.7-2.55-6-2.55-9.9 0-5 1.25-9.5 3.75-13.5 2.6-4 6.5-7.2 11.7-9.6l1.35 2.7c-3.1 1.3-5.8 3.35-8.1 6.15-2.2 2.8-3.3 5.65-3.3 8.55 0 1.2.15 2.25.45 3.15 1.6-1.3 3.45-1.95 5.55-1.95 2.7 0 4.95.9 6.75 2.7 1.9 1.7 2.85 4 2.85 6.9 0 2.7-.95 5-2.85 6.9-1.8 1.8-4.05 2.7-6.75 2.7z"></path>
      </symbol>
      <symbol  xmlns="http://www.w3.org/2000/svg" viewBox="0 0 45 40" id="warning">
        <path d="M44.52 36.8c0 1.04-.367 1.833-1.1 2.38-.733.547-1.633.82-2.7.82H3.8c-1.067 0-1.967-.28-2.7-.84C.367 38.6 0 37.813 0 36.8c0-.8.24-1.613.72-2.44L19.16 2.2C20.04.733 21.08 0 22.28 0c1.2 0 2.213.733 3.04 2.2L43.8 34.4c.48.853.72 1.653.72 2.4zM25.04 16.36v-5.84h-5.56v5.84c0 .373.027.727.08 1.06.053.333.127.707.22 1.12.093.413.167.767.22 1.06l1.04 6.48h2.36l1.08-6.48c.053-.267.133-.613.24-1.04.107-.427.187-.807.24-1.14a6.75 6.75 0 00.08-1.06zm0 15.48c0-.773-.273-1.427-.82-1.96a2.732 2.732 0 00-1.98-.8c-.747 0-1.393.267-1.94.8a2.632 2.632 0 00-.82 1.96c0 .773.273 1.433.82 1.98.547.547 1.193.82 1.94.82.773 0 1.433-.273 1.98-.82.547-.547.82-1.207.82-1.98z"></path>
      </symbol>
      <symbol  xmlns="http://www.w3.org/2000/svg" viewBox="0 0 42 42" id="info">
        <path d="M21 42C9.402 42 0 32.598 0 21S9.402 0 21 0s21 9.402 21 21-9.402 21-21 21zm-2.1-23.1v12.6h4.2V18.9h-4.2zm0-8.4v4.2h4.2v-4.2h-4.2z"></path>
      </symbol>

      <symbol  xmlns="http://www.w3.org/2000/svg" viewBox="0 0 42 42" id="edit-white">
        <g clip-path="url(#clip0)" fill="#fff">
          <path d="M21.438 3.5h-1.925A4.834 4.834 0 0014.874 0a4.834 4.834 0 00-4.637 3.5H8.313C7.595 3.5 7 4.095 7 4.813v2.625a3.077 3.077 0 003.063 3.062h9.624a3.077 3.077 0 003.063-3.063V4.813c0-.717-.595-1.312-1.313-1.312z"></path>
          <path d="M24.938 5.25H24.5v2.188a4.81 4.81 0 01-4.813 4.812h-9.625A4.81 4.81 0 015.25 7.437V5.25h-.438A4.81 4.81 0 000 10.063v21.874a4.81 4.81 0 004.813 4.813h12.915l.384-2.153c.176-.98.63-1.855 1.33-2.572l1.4-1.4H6.563a1.322 1.322 0 01-1.312-1.313c0-.717.595-1.312 1.313-1.312h16.625c.087 0 .157 0 .245.035h.017l6.3-6.3V10.063a4.81 4.81 0 00-4.813-4.813zm-1.75 19.688H6.563a1.322 1.322 0 01-1.313-1.313c0-.718.595-1.313 1.313-1.313h16.625c.717 0 1.312.595 1.312 1.313s-.595 1.313-1.313 1.313zm0-5.688H6.563a1.322 1.322 0 01-1.313-1.313c0-.717.595-1.312 1.313-1.312h16.625c.717 0 1.312.595 1.312 1.313 0 .717-.595 1.312-1.313 1.312zM21.922 42a1.31 1.31 0 01-1.291-1.542l.927-5.258c.046-.265.175-.51.364-.7l12.994-12.992c1.596-1.6 3.164-1.168 4.021-.31l2.165 2.165a3.064 3.064 0 010 4.33L28.108 40.688a1.288 1.288 0 01-.7.364l-5.258.928a1.251 1.251 0 01-.228.021zm5.259-2.24h.017-.017z"></path>
        </g>
        <defs>
          <clipPath id="clip0">
            <path fill="#fff" d="M0 0h42v42H0z"></path>
          </clipPath>
        </defs>
      </symbol>
      <symbol  xmlns="http://www.w3.org/2000/svg" viewBox="0 0 32 42" id="idea-white">
        <path d="M22.158 15.401a1.233 1.233 0 00-2.465 0 1.234 1.234 0 002.465 0zm-9.851 0a1.234 1.234 0 00-2.465 0c0 .68.553 1.233 1.232 1.233.68 0 1.233-.553 1.233-1.233zm2.461 3.694h2.465V32.15h-2.465V19.095z" fill="#fff"></path>
        <path d="M16 0C7.508 0 .6 6.91.6 15.402a15.4 15.4 0 002.028 7.644 15.503 15.503 0 004.754 5.12v3.984h4.926V19.095h-1.233a3.698 3.698 0 01-3.693-3.693 3.697 3.697 0 013.693-3.694 3.697 3.697 0 013.481 4.926h2.89a3.697 3.697 0 013.481-4.926 3.697 3.697 0 013.693 3.694 3.698 3.698 0 01-3.693 3.693h-1.232V32.15h4.925v-3.984a15.503 15.503 0 004.754-5.12 15.4 15.4 0 002.029-7.644C31.402 6.909 24.492 0 16 0zM7.38 39.537h17.24V42H7.38v-2.463zm0-4.926h17.24v2.465H7.38v-2.465z" fill="#fff"></path>
      </symbol>

      <symbol  xmlns="http://www.w3.org/2000/svg" viewBox="0 0 40 40" id="like-active">
        <g clip-path="url(#clip0)" >
          <path d="M31.741 7.045h-2.348a1.174 1.174 0 100 2.348h2.348a1.174 1.174 0 100-2.348zM19.876 2.997L18.702.648a1.174 1.174 0 10-2.1 1.05l1.173 2.35a1.175 1.175 0 002.1-1.051zM27.571.123a1.177 1.177 0 00-1.575.525l-1.174 2.349a1.174 1.174 0 102.1 1.05L28.096 1.7c.29-.58.055-1.286-.525-1.576zM15.304 7.045h-2.348a1.174 1.174 0 100 2.348h2.348a1.174 1.174 0 100-2.348zM8.26 18.865H3.563c-.649 0-1.174.526-1.174 1.174v18.787c0 .649.525 1.175 1.174 1.175H8.26c.648 0 1.174-.526 1.174-1.175V20.04c0-.648-.526-1.174-1.174-1.174zm29.33 3.112c-.207-1.821-1.909-3.112-3.742-3.112h-9.154c.778-1.393 1.195-5.333 1.177-6.943-.03-2.664-2.237-4.799-4.901-4.799H20c-.648 0-1.174.525-1.174 1.174 0 2.715-1.057 7.616-3.05 9.61-1.343 1.343-2.49 1.829-3.995 2.58v17.62C14.085 38.873 17.01 40 21.467 40h7.68c2.532 0 4.503-2.344 3.522-4.82a3.529 3.529 0 002.348-4.697c2.518-.686 3.445-3.795 1.697-5.747a3.515 3.515 0 00.876-2.759z"></path>
        </g>
        <defs>
          <clipPath id="clip0">
            <path fill="#fff" d="M0 0h40v40H0z"></path>
          </clipPath>
        </defs>
      </symbol>
      <symbol xmlns="http://www.w3.org/2000/svg" viewBox="0 0 40 40" id="like">
        <g clip-path="url(#clip0)" fill="#D6D6D6">
          <path d="M31.741 32.955h-2.348a1.174 1.174 0 110-2.348h2.348a1.174 1.174 0 110 2.348zm-11.865 4.048l-1.174 2.349a1.174 1.174 0 11-2.1-1.05l1.173-2.35a1.175 1.175 0 012.1 1.051zm7.695 2.874a1.177 1.177 0 01-1.575-.525l-1.174-2.349a1.174 1.174 0 112.1-1.05l1.174 2.348c.29.58.055 1.286-.525 1.576zm-12.267-6.922h-2.348a1.174 1.174 0 110-2.348h2.348a1.174 1.174 0 110 2.348zM8.26 21.135H3.563a1.174 1.174 0 01-1.174-1.174V1.174c0-.649.525-1.175 1.174-1.175H8.26c.648 0 1.174.526 1.174 1.175V19.96c0 .648-.526 1.174-1.174 1.174zm29.33-3.112c-.207 1.821-1.909 3.112-3.742 3.112h-9.154c.778 1.393 1.195 5.333 1.177 6.943-.03 2.664-2.237 4.799-4.901 4.799H20a1.174 1.174 0 01-1.174-1.174c0-2.715-1.057-7.616-3.05-9.61-1.343-1.343-2.49-1.829-3.995-2.58V1.892C14.085 1.127 17.01 0 21.467 0h7.68c2.532 0 4.503 2.344 3.522 4.82a3.529 3.529 0 012.348 4.697c2.518.686 3.445 3.795 1.697 5.747.642.717.996 1.698.876 2.759z"></path>
        </g>
        <defs>
          <clipPath id="clip0">
            <path fill="#fff" transform="matrix(1 0 0 -1 0 40)" d="M0 0h40v40H0z"></path>
          </clipPath>
        </defs>
      </symbol>

      <symbol xmlns="http://www.w3.org/2000/svg" viewBox="0 0 30 30" id="cil_star">
        <path d="M1.055 11.64a2.376 2.376 0 011.885-1.616L9.73 8.92l3.149-6.118a2.384 2.384 0 014.24 0l3.148 6.118 6.792 1.104a2.385 2.385 0 011.31 4.033l-4.845 4.885 1.048 6.8a2.383 2.383 0 01-3.43 2.492L15 25.135l-6.143 3.1a2.384 2.384 0 01-3.43-2.493l1.048-6.8-4.846-4.885a2.375 2.375 0 01-.574-2.416zm1.906 1.096l5.512 5.557-1.194 7.735a.508.508 0 00.733.532L15 23.035l6.988 3.526a.508.508 0 00.733-.533l-1.194-7.735 5.512-5.557a.51.51 0 00-.28-.861l-7.725-1.256-3.581-6.959a.51.51 0 00-.906 0l-3.581 6.96-7.725 1.255a.51.51 0 00-.28.861z"></path>
      </symbol>



      <symbol  xmlns="http://www.w3.org/2000/svg" viewBox="0 0 43 43" id="livejournal">
        <g clip-path="url(#clip0)" fill="#EF233C">
          <path d="M22.65 2.745c-2.67 0-5.262.517-7.711 1.534L10.764.103a.353.353 0 00-.435-.05A31.127 31.127 0 00.273 10.108a.352.352 0 00.05.435l4.003 4.001a19.947 19.947 0 00-1.805 8.329C2.52 33.97 11.55 43 22.65 43c11.098 0 20.127-9.029 20.127-20.127 0-11.099-9.029-20.128-20.127-20.128zm7.974 18.214l1.402 5.933 1.345 6.26-6.25-1.345-5.93-1.395L5.176 14.396a19.432 19.432 0 019.603-9.281l15.846 15.844z"></path>
          <path d="M31.264 26.42l-1.06-4.656a16.643 16.643 0 00-8.218 8.219l4.656 1.06a10.46 10.46 0 014.622-4.623z"></path>
        </g>
        <defs>
          <clipPath id="clip0">
            <path fill="#fff" d="M0 0h43v43H0z"></path>
          </clipPath>
        </defs>
      </symbol>
      <symbol  xmlns="http://www.w3.org/2000/svg" viewBox="0 0 40 40" id="viber">
        <path d="M20 40c11.046 0 20-8.954 20-20S31.046 0 20 0 0 8.954 0 20s8.954 20 20 20z" fill="#EF233C"></path>
        <path d="M28.577 17.753c.027-3.277-2.763-6.281-6.222-6.696a7.892 7.892 0 01-.223-.034 3.23 3.23 0 00-.527-.058c-.708 0-.898.498-.948.795-.048.289-.002.531.138.721.234.32.647.376.98.421.096.014.188.026.265.043 3.107.695 4.153 1.786 4.665 4.867.012.075.018.168.024.266.022.369.068 1.135.892 1.135.069 0 .142-.006.22-.018.766-.116.742-.817.73-1.153a1.704 1.704 0 01.006-.29z" fill="#fff"></path>
        <path d="M21.404 9.854c.092.007.18.013.252.024 5.102.785 7.448 3.202 8.099 8.344.01.088.012.194.014.307.007.402.02 1.238.918 1.255h.027c.282 0 .506-.084.666-.252.28-.292.26-.727.244-1.075a4.262 4.262 0 01-.006-.237c.065-5.26-4.488-10.028-9.742-10.205a.34.34 0 00-.064.003.438.438 0 01-.062.003c-.052 0-.117-.004-.185-.009-.083-.005-.176-.012-.271-.012-.837 0-.996.595-1.017.95-.047.819.746.876 1.127.904zm8.105 15.014c-.109-.082-.22-.168-.326-.253-.557-.448-1.15-.861-1.723-1.261a132.7 132.7 0 01-.356-.249c-.734-.516-1.394-.766-2.018-.766-.84 0-1.572.464-2.177 1.379-.267.406-.592.603-.993.603-.236 0-.506-.068-.8-.2-2.369-1.076-4.061-2.723-5.029-4.898-.468-1.051-.316-1.739.507-2.298.468-.317 1.338-.908 1.276-2.039-.07-1.284-2.904-5.15-4.098-5.589a2.327 2.327 0 00-1.582-.004c-1.373.462-2.358 1.272-2.85 2.344-.474 1.035-.452 2.251.063 3.516 1.49 3.657 3.584 6.845 6.225 9.477 2.585 2.575 5.762 4.685 9.444 6.27.332.143.68.22.934.277.086.02.161.037.215.052.03.008.061.012.092.012h.03c1.731 0 3.81-1.582 4.448-3.385.56-1.58-.462-2.36-1.282-2.988zM22.17 14.031c-.297.008-.914.023-1.13.651-.102.294-.09.55.036.758.183.307.535.401.856.453 1.161.186 1.758.828 1.877 2.02.055.557.43.945.91.945a.895.895 0 00.108-.006c.579-.07.859-.494.834-1.263.009-.802-.411-1.713-1.125-2.439-.717-.728-1.58-1.138-2.367-1.119z" fill="#fff"></path>
      </symbol>
      <symbol  xmlns="http://www.w3.org/2000/svg" viewBox="0 0 40 40" id="twitter">
        <path d="M20 40c11.046 0 20-8.954 20-20S31.046 0 20 0 0 8.954 0 20s8.954 20 20 20z" fill="#EF233C"></path>
        <path d="M32 13.212a9.829 9.829 0 01-2.717.745 4.688 4.688 0 002.074-2.606 9.422 9.422 0 01-2.99 1.141 4.714 4.714 0 00-8.156 3.224c0 .374.032.734.11 1.076-3.92-.192-7.39-2.07-9.72-4.932a4.747 4.747 0 00-.645 2.383c0 1.633.84 3.08 2.094 3.919a4.657 4.657 0 01-2.13-.581v.052a4.737 4.737 0 003.778 4.633 4.707 4.707 0 01-1.237.155c-.301 0-.606-.017-.892-.08.61 1.867 2.344 3.24 4.406 3.284a9.474 9.474 0 01-5.847 2.011c-.386 0-.757-.017-1.128-.064a13.275 13.275 0 007.233 2.116c8.677 0 13.421-7.188 13.421-13.418 0-.209-.007-.41-.017-.61A9.405 9.405 0 0032 13.212z" fill="#fff"></path>
      </symbol>
      <symbol  xmlns="http://www.w3.org/2000/svg" viewBox="0 0 40 40" id="wa">
        <path d="M20.005 0h-.01C8.967 0 0 8.97 0 20c0 4.375 1.41 8.43 3.808 11.723l-2.493 7.43 7.688-2.458A19.827 19.827 0 0020.005 40C31.032 40 40 31.027 40 20S31.032 0 20.005 0zm11.637 28.242c-.482 1.363-2.397 2.493-3.924 2.823-1.046.223-2.41.4-7.006-1.505-5.877-2.435-9.662-8.407-9.957-8.795-.283-.387-2.375-3.163-2.375-6.033 0-2.87 1.457-4.267 2.045-4.867.482-.492 1.28-.717 2.045-.717.247 0 .47.012.67.022.587.025.883.06 1.27.988.482 1.162 1.657 4.032 1.797 4.327.143.295.285.695.085 1.083-.187.4-.352.577-.647.917-.295.34-.575.6-.87.965-.27.317-.575.658-.235 1.245.34.575 1.515 2.492 3.245 4.032 2.232 1.988 4.043 2.623 4.69 2.893.482.2 1.057.152 1.41-.223.447-.482 1-1.282 1.563-2.07.4-.565.904-.635 1.434-.435.54.188 3.398 1.6 3.985 1.893.588.295.976.435 1.118.683.14.247.14 1.41-.343 2.774z" fill="#EF233C"></path>
      </symbol>
      <symbol  xmlns="http://www.w3.org/2000/svg" viewBox="0 0 40 40" id="ok">
        <path d="M20.02 16.575a3.424 3.424 0 003.423-3.454 3.43 3.43 0 00-3.442-3.44 3.437 3.437 0 00-3.45 3.481 3.432 3.432 0 003.468 3.413z" fill="#EF233C"></path>
        <path d="M20 0C8.954 0 0 8.955 0 20s8.954 20 20 20 20-8.955 20-20S31.046 0 20 0zm.029 6.082c3.895.01 7.022 3.197 7.002 7.136-.02 3.848-3.197 6.966-7.087 6.953-3.85-.013-7.006-3.204-6.983-7.06.021-3.898 3.18-7.04 7.068-7.029zm7.89 16.857c-.861.884-1.898 1.524-3.05 1.97-1.088.423-2.281.635-3.462.777.179.194.263.289.374.4 1.602 1.611 3.213 3.214 4.81 4.83.544.55.657 1.233.358 1.872-.327.7-1.06 1.16-1.78 1.11-.457-.03-.812-.257-1.128-.575-1.21-1.217-2.442-2.412-3.626-3.652-.346-.361-.511-.292-.816.021a241.4 241.4 0 01-3.697 3.712c-.558.551-1.223.651-1.871.336-.689-.333-1.127-1.037-1.093-1.744.024-.477.258-.843.587-1.17 1.586-1.583 3.168-3.171 4.75-4.758.105-.105.202-.217.355-.38-2.158-.226-4.104-.757-5.77-2.06-.207-.162-.42-.318-.608-.5-.73-.7-.803-1.502-.226-2.328.494-.707 1.322-.896 2.183-.49.167.078.326.177.478.282 3.104 2.133 7.37 2.192 10.486.096.308-.236.639-.43 1.021-.528.743-.192 1.437.082 1.836.733.456.743.45 1.468-.111 2.046z" fill="#EF233C"></path>
      </symbol>

</svg>