<svg width="0" height="0" class="hidden">
    <symbol xmlns="http://www.w3.org/2000/svg" viewBox="0 0 30 30" id="vk">
        <path d="M15 0C6.716 0 0 6.716 0 15c0 8.284 6.716 15 15 15 8.284 0 15-6.716 15-15 0-8.284-6.716-15-15-15zm7.609 16.622c.699.683 1.439 1.326 2.066 2.08.278.333.54.677.74 1.065.285.553.027 1.159-.467 1.192l-3.073-.001c-.794.066-1.426-.255-1.958-.797-.425-.433-.82-.894-1.229-1.342a2.871 2.871 0 00-.553-.492c-.42-.272-.783-.189-1.023.249-.245.445-.3.939-.324 1.434-.033.725-.252.914-.979.948-1.554.073-3.028-.163-4.398-.946-1.208-.69-2.144-1.666-2.959-2.77-1.587-2.152-2.803-4.514-3.895-6.944-.246-.547-.066-.84.538-.85a85.522 85.522 0 013.009-.002c.408.007.678.24.835.625.542 1.334 1.206 2.603 2.039 3.78.222.313.448.625.77.846.357.245.628.164.796-.233.107-.253.154-.523.177-.794.08-.927.09-1.854-.049-2.777-.086-.578-.41-.951-.987-1.06-.293-.056-.25-.165-.108-.332.248-.29.48-.47.944-.47h3.472c.547.107.67.353.744.904l.003 3.859c-.006.213.107.845.49.985.307.101.51-.145.693-.34.833-.883 1.426-1.926 1.957-3.005.235-.476.437-.969.634-1.462.146-.365.373-.545.785-.539l3.343.004c.099 0 .199.001.296.018.564.097.718.339.544.889-.275.863-.808 1.583-1.329 2.304-.558.772-1.154 1.517-1.707 2.293-.508.709-.468 1.066.163 1.681z"></path>
    </symbol>
    <symbol xmlns="http://www.w3.org/2000/svg" viewBox="0 0 30 30" id="youtube">
        <path d="M13.132 17.81L18.01 15l-4.88-2.81v5.62z"></path>
        <path d="M15 0C6.717 0 0 6.717 0 15c0 8.283 6.717 15 15 15 8.283 0 15-6.717 15-15 0-8.283-6.717-15-15-15zm9.373 15.015s0 3.042-.386 4.51a2.349 2.349 0 01-1.652 1.651c-1.467.387-7.335.387-7.335.387s-5.852 0-7.335-.402a2.349 2.349 0 01-1.652-1.652C5.627 18.057 5.627 15 5.627 15s0-3.042.386-4.509a2.396 2.396 0 011.652-1.667C9.132 8.438 15 8.438 15 8.438s5.868 0 7.334.401c.803.216 1.436.85 1.653 1.652.401 1.467.386 4.524.386 4.524z"></path>
    </symbol>
    <symbol xmlns="http://www.w3.org/2000/svg" viewBox="0 0 30 30" id="facebook">
        <path d="M30 15c0-8.285-6.715-15-15-15S0 6.715 0 15s6.715 15 15 15c.088 0 .176 0 .264-.006V18.322H12.04v-3.756h3.223v-2.765c0-3.205 1.957-4.951 4.816-4.951 1.371 0 2.549.1 2.889.146v3.352H21c-1.553 0-1.857.738-1.857 1.822v2.39h3.72l-.486 3.756h-3.234V29.42C25.413 27.62 30 21.85 30 15z"></path>
    </symbol>
    <symbol xmlns="http://www.w3.org/2000/svg" viewBox="0 0 30 30" id="instagram">
        <path fill-rule="evenodd" clip-rule="evenodd" d="M30 15c0 8.284-6.716 15-15 15-8.284 0-15-6.716-15-15C0 6.716 6.716 0 15 0c8.284 0 15 6.716 15 15zM7 9.344A2.347 2.347 0 019.344 7h11.312A2.347 2.347 0 0123 9.344v11.312A2.347 2.347 0 0120.656 23H9.344A2.347 2.347 0 017 20.656V9.344zm3.813 5.625a4.223 4.223 0 004.218 4.219 4.224 4.224 0 004.219-4.22 4.223 4.223 0 00-4.219-4.218 4.223 4.223 0 00-4.219 4.219zm7.5-4.688a1.407 1.407 0 102.815-.001 1.407 1.407 0 00-2.816.001zm1.406-.469a.47.47 0 100 .939.47.47 0 000-.939zM11.75 14.97a3.285 3.285 0 013.281-3.281 3.285 3.285 0 013.281 3.28 3.285 3.285 0 01-3.28 3.282 3.285 3.285 0 01-3.282-3.281z"></path>
    </symbol>
    <symbol xmlns="http://www.w3.org/2000/svg" viewBox="0 0 30 30" id="telegram">
        <path d="M15 30c8.286 0 15-6.714 15-15S23.286 0 15 0 0 6.714 0 15s6.714 15 15 15zM6.864 14.675l14.462-5.576c.671-.243 1.258.163 1.04 1.178h.002l-2.463 11.6c-.183.823-.671 1.023-1.355.636l-3.75-2.764-1.809 1.742c-.2.2-.368.369-.756.369l.266-3.816 6.95-6.279c.303-.266-.067-.416-.466-.151l-8.589 5.407-3.702-1.155c-.804-.255-.822-.803.17-1.191z"></path>
    </symbol>


    <symbol xmlns="http://www.w3.org/2000/svg" viewBox="0 0 25 25" id="search">
        <path d="M24.695 23.222l-7.11-7.11a9.848 9.848 0 002.206-6.216C19.791 4.44 15.351 0 9.896 0 4.44 0 0 4.44 0 9.896s4.44 9.896 9.896 9.896c2.354 0 4.515-.83 6.216-2.207l7.11 7.11a1.04 1.04 0 001.473 0 1.04 1.04 0 000-1.473zm-14.8-5.514c-4.308 0-7.812-3.504-7.812-7.812s3.504-7.813 7.813-7.813c4.308 0 7.812 3.505 7.812 7.813s-3.504 7.812-7.812 7.812z"></path>
    </symbol>


    <symbol xmlns="http://www.w3.org/2000/svg" viewBox="0 0 20 20" id="view">
        <path d="M7.734 10a2.187 2.187 0 104.375 0 2.187 2.187 0 00-4.375 0zm10.668-.504c-1.851-3.9-4.65-5.863-8.402-5.863-3.754 0-6.55 1.963-8.402 5.865a1.178 1.178 0 000 1.006c1.851 3.9 4.65 5.863 8.402 5.863 3.754 0 6.55-1.963 8.402-5.865a1.18 1.18 0 000-1.006zm-8.48 3.941a3.438 3.438 0 110-6.875 3.438 3.438 0 010 6.875z" fill="#EF233C"></path>
    </symbol>
    <symbol xmlns="http://www.w3.org/2000/svg" viewBox="0 0 20 20" id="comment">
        <path d="M10.5 3C5.805 3 2 6.091 2 9.906c0 1.647.71 3.154 1.893 4.34-.415 1.673-1.803 3.164-1.82 3.18a.264.264 0 00-.05.29c.043.1.136.159.243.159 2.201 0 3.851-1.056 4.668-1.707 1.086.409 2.291.645 3.566.645 4.695 0 8.5-3.092 8.5-6.907S15.195 3 10.5 3z" fill="#EF233C"></path>
    </symbol>
    <symbol xmlns="http://www.w3.org/2000/svg" viewBox="0 0 21 21" id="date">
        <path d="M6.75 3a.536.536 0 00-.536.536v1.071h1.072V3.536A.536.536 0 006.75 3zm7.5 0a.536.536 0 00-.536.536v1.071h1.072V3.536A.536.536 0 0014.25 3zm2.143 1.607h-1.607V6.75a.536.536 0 11-1.072 0V4.607H7.286V6.75a.536.536 0 11-1.072 0V4.607H4.607C3.72 4.607 3 5.327 3 6.214v10.179C3 17.28 3.72 18 4.607 18h11.786C17.28 18 18 17.28 18 16.393V6.214c0-.887-.72-1.607-1.607-1.607zm.536 11.786c0 .296-.24.536-.536.536H4.607a.536.536 0 01-.536-.536V9.429H16.93v6.964z" fill="#EF233C"></path>
    </symbol>
</svg>