<svg width="237" height="60" viewBox="0 0 237 60" fill="none" xmlns="http://www.w3.org/2000/svg">
<path d="M101.32 10.85C103.52 10.85 105.37 10.82 106.87 10.76L106.72 11.36C105.98 11.4 105.43 11.48 105.07 11.6C104.73 11.72 104.45 11.95 104.23 12.29C104.03 12.63 103.83 13.18 103.63 13.94L99.67 28.82C99.51 29.5 99.43 29.98 99.43 30.26C99.43 30.7 99.57 30.99 99.85 31.13C100.15 31.27 100.68 31.36 101.44 31.4L101.32 32C99.86 31.94 98.02 31.91 95.8 31.91C93.34 31.91 91.54 31.94 90.4 32L90.52 31.4C91.26 31.36 91.8 31.28 92.14 31.16C92.5 31.04 92.78 30.81 92.98 30.47C93.2 30.13 93.41 29.58 93.61 28.82L97.96 12.65L85.51 32.15H84.85L82.18 14.63L78.7 27.89C78.56 28.45 78.49 28.93 78.49 29.33C78.49 30.65 79.37 31.34 81.13 31.4L81.01 32C80.29 31.94 79.1 31.91 77.44 31.91C76.2 31.91 75.25 31.94 74.59 32L74.71 31.4C75.65 31.36 76.37 31.02 76.87 30.38C77.37 29.74 77.76 28.91 78.04 27.89L81.76 13.94C81.92 13.26 82 12.78 82 12.5C82 12.06 81.85 11.77 81.55 11.63C81.27 11.49 80.75 11.4 79.99 11.36L80.14 10.76C81.26 10.82 82.95 10.85 85.21 10.85C86.27 10.85 87.19 10.82 87.97 10.76L89.71 24.44L98.38 10.85H101.32ZM109.547 11.72C109.547 10.68 109.877 9.89 110.537 9.35C111.217 8.81 112.107 8.54 113.207 8.54C114.087 8.54 114.747 8.71 115.187 9.05C115.647 9.39 115.877 9.9 115.877 10.58C115.877 11.5 115.527 12.25 114.827 12.83C114.127 13.41 113.247 13.7 112.187 13.7C111.327 13.7 110.667 13.53 110.207 13.19C109.767 12.85 109.547 12.36 109.547 11.72ZM108.287 18.98C108.387 18.72 108.437 18.47 108.437 18.23C108.437 17.89 108.297 17.72 108.017 17.72C107.697 17.72 107.407 17.86 107.147 18.14C106.887 18.42 106.627 18.91 106.367 19.61L105.677 21.44H105.107L105.947 19.1C106.687 17.04 108.177 16.01 110.417 16.01C111.497 16.01 112.287 16.27 112.787 16.79C113.287 17.31 113.537 17.97 113.537 18.77C113.537 19.21 113.457 19.69 113.297 20.21L110.177 29.45C110.077 29.79 110.027 30.03 110.027 30.17C110.027 30.53 110.197 30.71 110.537 30.71C111.117 30.71 111.647 30.08 112.127 28.82L112.757 27.14H113.327L112.577 29.33C111.857 31.39 110.427 32.42 108.287 32.42C107.267 32.42 106.477 32.18 105.917 31.7C105.357 31.22 105.077 30.51 105.077 29.57C105.077 28.93 105.227 28.16 105.527 27.26L108.287 18.98ZM127.485 16.01C128.385 16.01 129.095 16.29 129.615 16.85C130.135 17.39 130.395 18.08 130.395 18.92C130.395 19.94 130.075 20.82 129.435 21.56C128.795 22.3 127.985 22.67 127.005 22.67C126.265 22.67 125.705 22.48 125.325 22.1C124.945 21.72 124.755 21.16 124.755 20.42C124.755 19.54 125.075 18.74 125.715 18.02C126.355 17.3 127.125 16.86 128.025 16.7C127.785 16.64 127.645 16.61 127.605 16.61C126.965 16.61 126.385 16.74 125.865 17C125.345 17.26 124.765 17.9 124.125 18.92C123.505 19.94 122.845 21.5 122.145 23.6L119.955 32H114.645L118.305 18.98C118.385 18.68 118.425 18.42 118.425 18.2C118.425 17.88 118.295 17.72 118.035 17.72C117.715 17.72 117.425 17.86 117.165 18.14C116.905 18.42 116.645 18.91 116.385 19.61L115.695 21.44H115.125L115.965 19.1C116.705 17.04 118.195 16.01 120.435 16.01C121.395 16.01 122.095 16.27 122.535 16.79C122.975 17.31 123.195 17.98 123.195 18.8C123.195 19.08 123.185 19.29 123.165 19.43C123.745 18.17 124.365 17.29 125.025 16.79C125.705 16.27 126.525 16.01 127.485 16.01ZM144.862 27.14H145.432L144.682 29.33C143.962 31.39 142.532 32.42 140.392 32.42C139.172 32.42 138.302 32.07 137.782 31.37C137.442 30.87 137.272 30.26 137.272 29.54C137.272 29.32 137.282 29.15 137.302 29.03C136.822 30.25 136.202 31.12 135.442 31.64C134.682 32.16 133.782 32.42 132.742 32.42C131.502 32.42 130.572 32.1 129.952 31.46C129.332 30.82 129.022 29.89 129.022 28.67C129.022 26.79 129.522 24.86 130.522 22.88C131.542 20.9 132.802 19.26 134.302 17.96C135.822 16.66 137.272 16.01 138.652 16.01C139.792 16.01 140.412 16.58 140.512 17.72L140.902 16.46C142.842 16.44 144.652 16.29 146.332 16.01L142.282 29.45C142.202 29.71 142.162 29.95 142.162 30.17C142.162 30.53 142.322 30.71 142.642 30.71C143.222 30.71 143.752 30.08 144.232 28.82L144.862 27.14ZM135.352 30.38C135.772 30.38 136.192 30.06 136.612 29.42C137.032 28.78 137.512 27.63 138.052 25.97L140.212 18.77C140.232 18.67 140.242 18.52 140.242 18.32C140.242 17.76 140.052 17.48 139.672 17.48C139.112 17.48 138.422 18.06 137.602 19.22C136.802 20.38 136.112 21.84 135.532 23.6C134.952 25.36 134.662 27.09 134.662 28.79C134.662 29.37 134.712 29.78 134.812 30.02C134.912 30.26 135.092 30.38 135.352 30.38ZM158.153 16.61C157.173 16.61 156.233 17.15 155.333 18.23C154.453 19.29 153.733 20.67 153.173 22.37C152.633 24.05 152.363 25.76 152.363 27.5C152.363 28.54 152.573 29.31 152.993 29.81C153.413 30.31 154.003 30.56 154.763 30.56C155.403 30.56 156.013 30.38 156.593 30.02C157.173 29.66 157.763 29.04 158.363 28.16L158.963 28.4C157.243 31.08 154.953 32.42 152.093 32.42C150.493 32.42 149.203 32.03 148.223 31.25C147.243 30.45 146.753 29.26 146.753 27.68C146.753 25.9 147.213 24.11 148.133 22.31C149.053 20.49 150.353 18.99 152.033 17.81C153.713 16.61 155.623 16.01 157.763 16.01C158.963 16.01 159.913 16.31 160.613 16.91C161.313 17.51 161.663 18.25 161.663 19.13C161.663 19.77 161.503 20.4 161.183 21.02C160.863 21.62 160.433 22.11 159.893 22.49C159.353 22.87 158.773 23.06 158.153 23.06C157.593 23.06 157.113 22.88 156.713 22.52C156.313 22.14 156.113 21.62 156.113 20.96C156.113 20.02 156.413 19.19 157.013 18.47C157.613 17.73 158.333 17.23 159.173 16.97C158.913 16.73 158.573 16.61 158.153 16.61ZM166.295 29.45C166.235 29.65 166.205 29.84 166.205 30.02C166.205 30.26 166.255 30.44 166.355 30.56C166.475 30.66 166.615 30.71 166.775 30.71C166.975 30.71 167.205 30.59 167.465 30.35C167.745 30.09 168.025 29.58 168.305 28.82L168.935 27.14H169.505L168.755 29.33C168.355 30.49 167.765 31.3 166.985 31.76C166.205 32.2 165.375 32.42 164.495 32.42C163.495 32.42 162.715 32.16 162.155 31.64C161.595 31.12 161.315 30.37 161.315 29.39C161.315 28.77 161.435 28.06 161.675 27.26L166.265 11.99C166.365 11.63 166.415 11.35 166.415 11.15C166.415 10.75 166.255 10.46 165.935 10.28C165.635 10.1 165.115 10.01 164.375 10.01L164.585 9.38C166.165 9.36 167.595 9.25 168.875 9.05C170.155 8.85 171.405 8.55 172.625 8.15L166.295 29.45ZM185.807 18.65C185.807 20.33 184.867 21.8 182.987 23.06C181.127 24.3 178.907 25.22 176.327 25.82C176.267 26.36 176.237 26.87 176.237 27.35C176.237 28.45 176.447 29.21 176.867 29.63C177.287 30.05 177.907 30.26 178.727 30.26C179.227 30.26 179.867 30.09 180.647 29.75C181.447 29.41 182.207 28.88 182.927 28.16L183.407 28.4C182.647 29.54 181.617 30.5 180.317 31.28C179.017 32.04 177.517 32.42 175.817 32.42C174.337 32.42 173.097 32.05 172.097 31.31C171.117 30.57 170.627 29.53 170.627 28.19C170.627 26.23 171.127 24.31 172.127 22.43C173.147 20.53 174.527 18.99 176.267 17.81C178.027 16.61 179.967 16.01 182.087 16.01C183.207 16.01 184.107 16.24 184.787 16.7C185.467 17.14 185.807 17.79 185.807 18.65ZM181.427 16.58C180.867 16.58 180.237 17.01 179.537 17.87C178.857 18.73 178.227 19.84 177.647 21.2C177.067 22.56 176.657 23.92 176.417 25.28C177.477 24.66 178.397 23.98 179.177 23.24C180.017 22.42 180.677 21.51 181.157 20.51C181.657 19.51 181.907 18.45 181.907 17.33C181.907 16.83 181.747 16.58 181.427 16.58Z" fill="#EF233C"/>
<path d="M84.722 51.438C84.722 51.9327 84.596 52.376 84.344 52.768C84.092 53.1507 83.7513 53.454 83.322 53.678C82.902 53.8927 82.44 54 81.936 54H77.246V44.06H82.034C82.5007 44.06 82.902 44.186 83.238 44.438C83.574 44.6807 83.8353 44.998 84.022 45.39C84.2087 45.7727 84.302 46.174 84.302 46.594C84.302 47.0887 84.176 47.546 83.924 47.966C83.672 48.386 83.322 48.6987 82.874 48.904C83.434 49.072 83.882 49.3847 84.218 49.842C84.554 50.2993 84.722 50.8313 84.722 51.438ZM78.226 44.914V48.582H81.642C81.9687 48.582 82.258 48.498 82.51 48.33C82.7713 48.1527 82.972 47.9287 83.112 47.658C83.2613 47.378 83.336 47.0747 83.336 46.748C83.336 46.412 83.266 46.104 83.126 45.824C82.986 45.544 82.7947 45.3247 82.552 45.166C82.3093 44.998 82.034 44.914 81.726 44.914H78.226ZM83.742 51.27C83.742 50.9433 83.6673 50.6353 83.518 50.346C83.3687 50.0567 83.1633 49.8233 82.902 49.646C82.65 49.4687 82.3607 49.38 82.034 49.38H78.226V53.146H81.936C82.272 53.146 82.5753 53.0573 82.846 52.88C83.1167 52.7027 83.3313 52.474 83.49 52.194C83.658 51.9047 83.742 51.5967 83.742 51.27ZM89.5382 54.14C88.8289 54.14 88.1989 53.9673 87.6482 53.622C87.0976 53.2673 86.6636 52.8053 86.3462 52.236C86.0289 51.6573 85.8702 51.0227 85.8702 50.332C85.8702 49.6413 86.0242 49.016 86.3322 48.456C86.6402 47.8867 87.0696 47.434 87.6202 47.098C88.1709 46.7527 88.8056 46.58 89.5242 46.58C90.2056 46.58 90.8029 46.7387 91.3162 47.056C91.8389 47.364 92.2309 47.784 92.4922 48.316L91.5682 48.61C91.3629 48.2367 91.0736 47.9473 90.7002 47.742C90.3362 47.5273 89.9302 47.42 89.4822 47.42C88.9876 47.42 88.5396 47.546 88.1382 47.798C87.7462 48.05 87.4289 48.4 87.1862 48.848C86.9529 49.2867 86.8362 49.7813 86.8362 50.332C86.8362 50.8827 86.9576 51.382 87.2002 51.83C87.4429 52.278 87.7649 52.6373 88.1662 52.908C88.5676 53.1693 89.0109 53.3 89.4962 53.3C89.8136 53.3 90.1216 53.244 90.4202 53.132C90.7189 53.02 90.9756 52.8707 91.1902 52.684C91.4049 52.488 91.5496 52.278 91.6242 52.054L92.5622 52.334C92.4316 52.6793 92.2169 52.992 91.9182 53.272C91.6196 53.5427 91.2649 53.7573 90.8542 53.916C90.4436 54.0653 90.0049 54.14 89.5382 54.14ZM97.1395 54.14C96.4395 54.14 95.8141 53.9673 95.2635 53.622C94.7128 53.2767 94.2788 52.8147 93.9615 52.236C93.6441 51.6573 93.4855 51.0227 93.4855 50.332C93.4855 49.6507 93.6395 49.0253 93.9475 48.456C94.2648 47.8867 94.6988 47.434 95.2495 47.098C95.8001 46.7527 96.4255 46.58 97.1255 46.58C97.8441 46.58 98.4741 46.7527 99.0155 47.098C99.5568 47.4433 99.9768 47.9007 100.275 48.47C100.583 49.03 100.737 49.646 100.737 50.318C100.737 50.4673 100.733 50.5933 100.723 50.696H94.4795C94.5261 51.2187 94.6755 51.6853 94.9275 52.096C95.1795 52.4973 95.5015 52.8193 95.8935 53.062C96.2855 53.2953 96.7148 53.412 97.1815 53.412C97.6575 53.412 98.1055 53.2907 98.5255 53.048C98.9455 52.8053 99.2441 52.488 99.4215 52.096L100.247 52.32C100.098 52.6747 99.8648 52.992 99.5475 53.272C99.2395 53.5427 98.8801 53.7573 98.4695 53.916C98.0588 54.0653 97.6155 54.14 97.1395 54.14ZM94.4515 50.01H99.8415C99.8041 49.4873 99.6595 49.0253 99.4075 48.624C99.1555 48.2133 98.8335 47.896 98.4415 47.672C98.0495 47.4387 97.6155 47.322 97.1395 47.322C96.6635 47.322 96.2295 47.4387 95.8375 47.672C95.4455 47.896 95.1235 48.2133 94.8715 48.624C94.6288 49.0253 94.4888 49.4873 94.4515 50.01ZM102.36 55.134L102.598 53.958H102.276V52.628H103.2V53.958L102.85 55.134H102.36ZM113.091 54V50.948C112.503 51.228 111.84 51.368 111.103 51.368C109.488 51.368 108.681 50.5327 108.681 48.862V46.706H109.633V48.736C109.633 49.3893 109.764 49.8653 110.025 50.164C110.296 50.4627 110.725 50.612 111.313 50.612C111.649 50.612 111.976 50.5747 112.293 50.5C112.62 50.4253 112.886 50.3273 113.091 50.206V46.706H114.043V54H113.091ZM117.958 54V47.56H115.354V46.706H121.514V47.56H118.91V54H117.958ZM125.918 54.14C125.218 54.14 124.592 53.9673 124.042 53.622C123.5 53.2767 123.076 52.8193 122.768 52.25C122.46 51.6713 122.306 51.046 122.306 50.374C122.306 49.6927 122.46 49.0673 122.768 48.498C123.085 47.9193 123.514 47.4573 124.056 47.112C124.606 46.7573 125.227 46.58 125.918 46.58C126.618 46.58 127.238 46.7573 127.78 47.112C128.33 47.4573 128.76 47.9193 129.068 48.498C129.385 49.0673 129.544 49.6927 129.544 50.374C129.544 51.046 129.39 51.6713 129.082 52.25C128.774 52.8193 128.344 53.2767 127.794 53.622C127.252 53.9673 126.627 54.14 125.918 54.14ZM123.272 50.388C123.272 50.9293 123.388 51.424 123.622 51.872C123.864 52.3107 124.186 52.6607 124.588 52.922C124.989 53.174 125.432 53.3 125.918 53.3C126.403 53.3 126.846 53.1693 127.248 52.908C127.649 52.6467 127.971 52.292 128.214 51.844C128.456 51.396 128.578 50.9013 128.578 50.36C128.578 49.8187 128.456 49.324 128.214 48.876C127.971 48.428 127.649 48.0733 127.248 47.812C126.846 47.5507 126.403 47.42 125.918 47.42C125.442 47.42 125.003 47.5553 124.602 47.826C124.2 48.0873 123.878 48.442 123.636 48.89C123.393 49.338 123.272 49.8373 123.272 50.388ZM134.69 54V46.706H135.642V49.842H139.814V46.706H140.766V54H139.814V50.696H135.642V54H134.69ZM142.278 51.9C142.278 51.452 142.409 51.0647 142.67 50.738C142.932 50.402 143.291 50.1407 143.748 49.954C144.215 49.7673 144.752 49.674 145.358 49.674C145.713 49.674 146.082 49.7067 146.464 49.772C146.847 49.828 147.188 49.9073 147.486 50.01V49.394C147.486 48.778 147.304 48.288 146.94 47.924C146.576 47.56 146.072 47.378 145.428 47.378C145.046 47.378 144.663 47.4527 144.28 47.602C143.898 47.742 143.501 47.952 143.09 48.232L142.726 47.56C143.202 47.2333 143.669 46.9907 144.126 46.832C144.584 46.664 145.05 46.58 145.526 46.58C146.422 46.58 147.132 46.8367 147.654 47.35C148.177 47.8633 148.438 48.5727 148.438 49.478V52.852C148.438 53.104 148.555 53.2347 148.788 53.244V54C148.583 54.028 148.438 54.0373 148.354 54.028C148.121 54.0187 147.944 53.944 147.822 53.804C147.701 53.664 147.636 53.5147 147.626 53.356L147.612 52.824C147.286 53.244 146.861 53.5707 146.338 53.804C145.816 54.028 145.284 54.14 144.742 54.14C144.266 54.14 143.842 54.042 143.468 53.846C143.095 53.6407 142.801 53.37 142.586 53.034C142.381 52.6887 142.278 52.3107 142.278 51.9ZM147.164 52.46C147.379 52.208 147.486 51.9747 147.486 51.76V50.696C146.842 50.444 146.17 50.318 145.47 50.318C144.789 50.318 144.238 50.4533 143.818 50.724C143.398 50.9947 143.188 51.3633 143.188 51.83C143.188 52.2313 143.342 52.5953 143.65 52.922C143.968 53.2487 144.406 53.412 144.966 53.412C145.424 53.412 145.848 53.3233 146.24 53.146C146.642 52.9687 146.95 52.74 147.164 52.46ZM149.683 55.694V53.146H149.809C150.089 53.146 150.341 53.0247 150.565 52.782C150.789 52.5393 150.971 52.1007 151.111 51.466C151.261 50.822 151.349 49.912 151.377 48.736L151.447 46.706H156.193V53.146H157.173V55.694H156.319V54H150.523V55.694H149.683ZM151.251 53.146H155.241V47.56H152.301L152.259 48.82C152.213 50.1267 152.105 51.116 151.937 51.788C151.769 52.4507 151.541 52.9033 151.251 53.146ZM161.724 54.14C161.024 54.14 160.399 53.9673 159.848 53.622C159.307 53.2767 158.882 52.8193 158.574 52.25C158.266 51.6713 158.112 51.046 158.112 50.374C158.112 49.6927 158.266 49.0673 158.574 48.498C158.892 47.9193 159.321 47.4573 159.862 47.112C160.413 46.7573 161.034 46.58 161.724 46.58C162.424 46.58 163.045 46.7573 163.586 47.112C164.137 47.4573 164.566 47.9193 164.874 48.498C165.192 49.0673 165.35 49.6927 165.35 50.374C165.35 51.046 165.196 51.6713 164.888 52.25C164.58 52.8193 164.151 53.2767 163.6 53.622C163.059 53.9673 162.434 54.14 161.724 54.14ZM159.078 50.388C159.078 50.9293 159.195 51.424 159.428 51.872C159.671 52.3107 159.993 52.6607 160.394 52.922C160.796 53.174 161.239 53.3 161.724 53.3C162.21 53.3 162.653 53.1693 163.054 52.908C163.456 52.6467 163.778 52.292 164.02 51.844C164.263 51.396 164.384 50.9013 164.384 50.36C164.384 49.8187 164.263 49.324 164.02 48.876C163.778 48.428 163.456 48.0733 163.054 47.812C162.653 47.5507 162.21 47.42 161.724 47.42C161.248 47.42 160.81 47.5553 160.408 47.826C160.007 48.0873 159.685 48.442 159.442 48.89C159.2 49.338 159.078 49.8373 159.078 50.388ZM173.661 54.14C172.961 54.14 172.336 53.9673 171.785 53.622C171.234 53.2767 170.8 52.8147 170.483 52.236C170.166 51.6573 170.007 51.0227 170.007 50.332C170.007 49.6507 170.161 49.0253 170.469 48.456C170.786 47.8867 171.22 47.434 171.771 47.098C172.322 46.7527 172.947 46.58 173.647 46.58C174.366 46.58 174.996 46.7527 175.537 47.098C176.078 47.4433 176.498 47.9007 176.797 48.47C177.105 49.03 177.259 49.646 177.259 50.318C177.259 50.4673 177.254 50.5933 177.245 50.696H171.001C171.048 51.2187 171.197 51.6853 171.449 52.096C171.701 52.4973 172.023 52.8193 172.415 53.062C172.807 53.2953 173.236 53.412 173.703 53.412C174.179 53.412 174.627 53.2907 175.047 53.048C175.467 52.8053 175.766 52.488 175.943 52.096L176.769 52.32C176.62 52.6747 176.386 52.992 176.069 53.272C175.761 53.5427 175.402 53.7573 174.991 53.916C174.58 54.0653 174.137 54.14 173.661 54.14ZM170.973 50.01H176.363C176.326 49.4873 176.181 49.0253 175.929 48.624C175.677 48.2133 175.355 47.896 174.963 47.672C174.571 47.4387 174.137 47.322 173.661 47.322C173.185 47.322 172.751 47.4387 172.359 47.672C171.967 47.896 171.645 48.2133 171.393 48.624C171.15 49.0253 171.01 49.4873 170.973 50.01ZM181.892 54.14C181.182 54.14 180.552 53.9673 180.002 53.622C179.451 53.2673 179.017 52.8053 178.7 52.236C178.382 51.6573 178.224 51.0227 178.224 50.332C178.224 49.6413 178.378 49.016 178.686 48.456C178.994 47.8867 179.423 47.434 179.974 47.098C180.524 46.7527 181.159 46.58 181.878 46.58C182.559 46.58 183.156 46.7387 183.67 47.056C184.192 47.364 184.584 47.784 184.846 48.316L183.922 48.61C183.716 48.2367 183.427 47.9473 183.054 47.742C182.69 47.5273 182.284 47.42 181.836 47.42C181.341 47.42 180.893 47.546 180.492 47.798C180.1 48.05 179.782 48.4 179.54 48.848C179.306 49.2867 179.19 49.7813 179.19 50.332C179.19 50.8827 179.311 51.382 179.554 51.83C179.796 52.278 180.118 52.6373 180.52 52.908C180.921 53.1693 181.364 53.3 181.85 53.3C182.167 53.3 182.475 53.244 182.774 53.132C183.072 53.02 183.329 52.8707 183.544 52.684C183.758 52.488 183.903 52.278 183.978 52.054L184.916 52.334C184.785 52.6793 184.57 52.992 184.272 53.272C183.973 53.5427 183.618 53.7573 183.208 53.916C182.797 54.0653 182.358 54.14 181.892 54.14ZM188.231 54V47.56H185.627V46.706H191.787V47.56H189.183V54H188.231ZM193.069 54V46.706H194.021V49.282H195.911C196.742 49.282 197.367 49.4967 197.787 49.926C198.217 50.346 198.431 50.9013 198.431 51.592C198.431 52.04 198.338 52.446 198.151 52.81C197.965 53.174 197.689 53.4633 197.325 53.678C196.961 53.8927 196.513 54 195.981 54H193.069ZM194.021 53.244H195.855C196.425 53.244 196.835 53.0807 197.087 52.754C197.339 52.418 197.465 52.0353 197.465 51.606C197.465 51.326 197.414 51.0693 197.311 50.836C197.218 50.5933 197.05 50.402 196.807 50.262C196.574 50.1127 196.247 50.038 195.827 50.038H194.021V53.244ZM203.903 57.052C203.595 57.052 203.268 56.954 202.923 56.758L203.273 56.086C203.469 56.2167 203.66 56.282 203.847 56.282C204.313 56.282 204.747 55.806 205.149 54.854L205.513 53.944L202.265 46.706H203.273L205.947 53.02L208.411 46.706H209.363L205.891 55.148C205.611 55.8107 205.307 56.2913 204.981 56.59C204.654 56.898 204.295 57.052 203.903 57.052ZM213.864 54V46.706H214.816V49.842H218.988V46.706H219.94V54H218.988V50.696H214.816V54H213.864ZM221.452 51.9C221.452 51.452 221.583 51.0647 221.844 50.738C222.106 50.402 222.465 50.1407 222.922 49.954C223.389 49.7673 223.926 49.674 224.532 49.674C224.887 49.674 225.256 49.7067 225.638 49.772C226.021 49.828 226.362 49.9073 226.66 50.01V49.394C226.66 48.778 226.478 48.288 226.114 47.924C225.75 47.56 225.246 47.378 224.602 47.378C224.22 47.378 223.837 47.4527 223.454 47.602C223.072 47.742 222.675 47.952 222.264 48.232L221.9 47.56C222.376 47.2333 222.843 46.9907 223.3 46.832C223.758 46.664 224.224 46.58 224.7 46.58C225.596 46.58 226.306 46.8367 226.828 47.35C227.351 47.8633 227.612 48.5727 227.612 49.478V52.852C227.612 53.104 227.729 53.2347 227.962 53.244V54C227.757 54.028 227.612 54.0373 227.528 54.028C227.295 54.0187 227.118 53.944 226.996 53.804C226.875 53.664 226.81 53.5147 226.8 53.356L226.786 52.824C226.46 53.244 226.035 53.5707 225.512 53.804C224.99 54.028 224.458 54.14 223.916 54.14C223.44 54.14 223.016 54.042 222.642 53.846C222.269 53.6407 221.975 53.37 221.76 53.034C221.555 52.6887 221.452 52.3107 221.452 51.9ZM226.338 52.46C226.553 52.208 226.66 51.9747 226.66 51.76V50.696C226.016 50.444 225.344 50.318 224.644 50.318C223.963 50.318 223.412 50.4533 222.992 50.724C222.572 50.9947 222.362 51.3633 222.362 51.83C222.362 52.2313 222.516 52.5953 222.824 52.922C223.142 53.2487 223.58 53.412 224.14 53.412C224.598 53.412 225.022 53.3233 225.414 53.146C225.816 52.9687 226.124 52.74 226.338 52.46ZM232.833 54.14C232.124 54.14 231.494 53.9673 230.943 53.622C230.392 53.2673 229.958 52.8053 229.641 52.236C229.324 51.6573 229.165 51.0227 229.165 50.332C229.165 49.6413 229.319 49.016 229.627 48.456C229.935 47.8867 230.364 47.434 230.915 47.098C231.466 46.7527 232.1 46.58 232.819 46.58C233.5 46.58 234.098 46.7387 234.611 47.056C235.134 47.364 235.526 47.784 235.787 48.316L234.863 48.61C234.658 48.2367 234.368 47.9473 233.995 47.742C233.631 47.5273 233.225 47.42 232.777 47.42C232.282 47.42 231.834 47.546 231.433 47.798C231.041 48.05 230.724 48.4 230.481 48.848C230.248 49.2867 230.131 49.7813 230.131 50.332C230.131 50.8827 230.252 51.382 230.495 51.83C230.738 52.278 231.06 52.6373 231.461 52.908C231.862 53.1693 232.306 53.3 232.791 53.3C233.108 53.3 233.416 53.244 233.715 53.132C234.014 53.02 234.27 52.8707 234.485 52.684C234.7 52.488 234.844 52.278 234.919 52.054L235.857 52.334C235.726 52.6793 235.512 52.992 235.213 53.272C234.914 53.5427 234.56 53.7573 234.149 53.916C233.738 54.0653 233.3 54.14 232.833 54.14Z" fill="black"/>
<path d="M41.0011 29.8181C41.0011 29.8181 50.0014 33.8182 51.0014 37.8184C52.0014 41.8185 48.0013 46.2562 48.0013 46.2562C47.4388 49.6938 45.0013 50.8188 45.0013 50.8188C43.9179 53.5272 41.0012 52.8189 41.0012 52.8189C39.0011 53.8189 37.3163 52.6272 36.0011 50.8188C34.3344 48.5271 33.1965 49.555 31.8968 47.7353C30.8551 46.2769 29.0009 41.2559 29.0009 37.9433C29.0009 35.9433 29.0009 29.8181 29.0009 29.8181H41.0011Z" fill="#EF233C"/>
<path d="M31.0009 29.8181H41.0011C41.0011 29.8181 50.0014 33.8182 51.0014 37.8184C52.0014 41.8185 48.0013 46.2562 48.0013 46.2562C48.0013 46.2562 37.0011 41.8185 31.0009 29.8181Z" fill="black"/>
<path d="M31.8966 47.7353C30.855 46.2769 29.0008 41.2559 29.0008 37.9433C29.0008 35.9433 29.0008 29.8181 29.0008 29.8181H31.0009C31.1258 38.0059 36.001 50.8187 36.001 50.8187C34.3342 48.5269 33.1964 49.5548 31.8966 47.7353Z" fill="black"/>
<path d="M54.7799 8.81749C56.7656 8.81749 57.9999 9.77325 57.9999 11.8174C57.9999 12.8176 57.5942 14.189 56.78 15.8176C53.7799 21.8178 55.7799 28.818 52.7799 30.818C49.7799 32.8181 31.0008 29.8179 31.0008 29.8179V27.8178C31.0009 27.818 38.7483 8.81749 54.7799 8.81749Z" fill="#FFE4E0"/>
<path d="M54.7799 8.81749C56.7656 8.81749 57.9999 9.77325 57.9999 11.8174C57.9999 12.1781 57.9284 12.6022 57.8227 13.054C52.0866 17.3656 41.3079 25.0081 31.0009 29.818V27.8179C31.0009 27.8179 38.7483 8.81749 54.7799 8.81749Z" fill="#EF233C"/>
<path d="M49.0014 12.8177C39.343 15.2323 33.9106 24.5163 31.5107 29.8972C31.1847 29.8475 31.0009 29.8182 31.0009 29.8182V27.8182C31.0009 27.8182 38.7483 8.8176 54.7801 8.8176C56.7658 8.8176 58 9.77336 58 11.8175C58 12.8042 57.6015 14.1546 56.809 15.7545C55.0873 13.0388 52.0463 12.0564 49.0014 12.8177Z" fill="black"/>
<path d="M16.9989 29.8181C16.9989 29.8181 7.99857 33.8182 6.99864 37.8184C5.99871 41.8186 9.99867 46.2562 9.99867 46.2562C10.5612 49.6938 12.9987 50.8188 12.9987 50.8188C14.0821 53.5272 16.9988 52.8189 16.9988 52.8189C18.9989 53.8189 20.6837 52.6272 21.9989 50.8188C23.6656 48.5271 24.8035 49.555 26.1032 47.7353C27.1448 46.277 28.9991 41.2559 28.9991 37.9433C28.9991 35.9433 28.9991 29.8181 28.9991 29.8181H16.9989Z" fill="#EF233C"/>
<path d="M26.9991 29.8181H16.9989C16.9989 29.8181 7.99857 33.8182 6.99864 37.8184C5.99871 41.8186 9.99867 46.2562 9.99867 46.2562C9.99867 46.2562 20.999 41.8185 26.9991 29.8181Z" fill="black"/>
<path d="M26.1033 47.7353C27.1449 46.277 28.9992 41.2559 28.9992 37.9433C28.9992 35.9433 28.9992 29.8181 28.9992 29.8181H26.9991C26.8742 38.0059 21.999 50.8187 21.999 50.8187C23.6657 48.5269 24.8036 49.5548 26.1033 47.7353Z" fill="black"/>
<path d="M28.9992 26.318C28.761 26.318 28.5558 26.15 28.5089 25.9156C27.5499 21.1196 24.6748 18.2005 24.6456 18.1712C24.4502 17.9759 24.4502 17.6594 24.6456 17.4642C24.841 17.269 25.1574 17.2688 25.3526 17.4642C25.4629 17.5746 27.7374 19.8842 28.9992 23.8287C30.261 19.8843 32.5354 17.5747 32.6458 17.4642C32.8412 17.2688 33.1566 17.2688 33.3518 17.4642C33.5472 17.6586 33.548 17.975 33.3528 18.1712C33.3245 18.1997 30.4455 21.1352 29.4895 25.9156C29.4426 26.15 29.2374 26.318 28.9992 26.318Z" fill="#908490"/>
<path d="M3.22002 8.81749C1.23443 8.81749 0 9.77336 0 11.8174C0 12.8176 0.40566 14.1889 1.21993 15.8176C4.21995 21.8178 2.21997 28.818 5.22 30.818C8.22003 32.8179 26.9991 29.8179 26.9991 29.8179V27.8179C26.9991 27.818 19.2517 8.81749 3.22002 8.81749Z" fill="#FFE4E0"/>
<path d="M3.22002 8.81749C1.23443 8.81749 0 9.77336 0 11.8174C0 12.1781 0.0714805 12.6022 0.177172 13.054C5.91351 17.3657 16.6921 25.0082 26.9992 29.818V27.8179C26.9991 27.818 19.2517 8.81749 3.22002 8.81749Z" fill="#EF233C"/>
<path d="M8.99861 12.8177C18.657 15.2323 24.0894 24.5163 26.4893 29.8972C26.8153 29.8475 26.9991 29.8182 26.9991 29.8182V27.8182C26.9991 27.8182 19.2517 8.8176 3.22002 8.8176C1.23443 8.81749 0 9.77336 0 11.8174C0 12.8041 0.398523 14.1545 1.19104 15.7544C2.91269 13.0388 5.95372 12.0564 8.99861 12.8177Z" fill="black"/>
<path d="M28.9992 33.8182C27.8946 33.8182 26.9991 32.9228 26.9991 31.8181V27.818C26.9991 26.7134 27.8945 25.8179 28.9992 25.8179C30.1038 25.8179 30.9993 26.7133 30.9993 27.818V31.8181C30.9992 32.9227 30.1037 33.8182 28.9992 33.8182Z" fill="#5A464B"/>
<path d="M28.9992 27.818C28.4469 27.818 27.9991 27.3702 27.9991 26.818V25.8179C27.9991 25.2657 28.4469 24.8179 28.9992 24.8179C29.5514 24.8179 29.9992 25.2657 29.9992 25.8179V26.818C29.9992 27.3704 29.5514 27.818 28.9992 27.818Z" fill="#050505"/>
</svg>
