<svg width="25" height="25" viewBox="0 0 25 25" fill="none" xmlns="http://www.w3.org/2000/svg">
<path d="M12.5 0C19.3926 0 25 5.60742 25 12.5C25 19.3926 19.3926 25 12.5 25C5.60742 25 0 19.3926 0 12.5C0 5.60742 5.60742 0 12.5 0ZM12.5 23.2143C18.4081 23.2143 23.2143 18.4081 23.2143 12.5C23.2143 6.59194 18.4081 1.78569 12.5 1.78569C6.59194 1.78569 1.78569 6.59194 1.78569 12.5C1.78569 18.4081 6.59194 23.2143 12.5 23.2143Z" fill="#EF233C"/>
<path d="M12.5 6.54761C12.9931 6.54761 13.3928 6.94731 13.3928 7.44048V17.5595C13.3928 18.0527 12.9931 18.4524 12.5 18.4524C12.0068 18.4524 11.6071 18.0527 11.6071 17.5595V7.44048C11.6071 6.94731 12.0068 6.54761 12.5 6.54761Z" fill="#EF233C"/>
<path d="M7.44048 11.6071H17.5595C18.0527 11.6071 18.4524 12.0068 18.4524 12.4999C18.4524 12.9931 18.0527 13.3928 17.5595 13.3928H7.44048C6.94732 13.3928 6.54761 12.9931 6.54761 12.4999C6.54761 12.0068 6.94732 11.6071 7.44048 11.6071Z" fill="#EF233C"/>
</svg>
