<svg width="24" height="24" viewBox="0 0 24 24" fill="none" xmlns="http://www.w3.org/2000/svg">
<path d="M12 0C5.37321 0 0 5.37321 0 12C0 18.6268 5.37321 24 12 24C18.6268 24 24 18.6268 24 12C24 5.37321 18.6268 0 12 0ZM12 18.9643C11.408 18.9643 10.9286 18.4848 10.9286 17.8929C10.9286 17.3009 11.408 16.8214 12 16.8214C12.592 16.8214 13.0714 17.3009 13.0714 17.8929C13.0714 18.4848 12.592 18.9643 12 18.9643ZM13.6848 13.0848C13.4422 13.1785 13.2335 13.3431 13.0859 13.5572C12.9382 13.7712 12.8585 14.0248 12.8571 14.2848V14.8929C12.8571 15.0107 12.7607 15.1071 12.6429 15.1071H11.3571C11.2393 15.1071 11.1429 15.0107 11.1429 14.8929V14.317C11.1429 13.6982 11.3223 13.0875 11.6759 12.5786C12.0214 12.0804 12.5036 11.7 13.0714 11.483C13.9821 11.1321 14.5714 10.3687 14.5714 9.53571C14.5714 8.35446 13.417 7.39286 12 7.39286C10.583 7.39286 9.42857 8.35446 9.42857 9.53571V9.73929C9.42857 9.85714 9.33214 9.95357 9.21429 9.95357H7.92857C7.81071 9.95357 7.71429 9.85714 7.71429 9.73929V9.53571C7.71429 8.48304 8.175 7.5 9.01071 6.76875C9.81429 6.06429 10.875 5.67857 12 5.67857C13.125 5.67857 14.1857 6.06696 14.9893 6.76875C15.825 7.5 16.2857 8.48304 16.2857 9.53571C16.2857 11.0839 15.2652 12.4768 13.6848 13.0848Z" fill="#EF233C"/>
</svg>
